<svg id="visual" viewBox="0 0 960 540" width="960" height="540" xmlns="http://www.w3.org/2000/svg" xmlns:xlink="http://www.w3.org/1999/xlink" version="1.1"><rect x="0" y="0" width="960" height="540" fill="#140021"></rect><path d="M0 251L137 251L137 232L274 232L274 345L411 345L411 298L549 298L549 306L686 306L686 236L823 236L823 227L960 227L960 313L960 541L960 541L823 541L823 541L686 541L686 541L549 541L549 541L411 541L411 541L274 541L274 541L137 541L137 541L0 541Z" fill="#9900ff"></path><path d="M0 367L137 367L137 354L274 354L274 406L411 406L411 414L549 414L549 399L686 399L686 355L823 355L823 385L960 385L960 343L960 541L960 541L823 541L823 541L686 541L686 541L549 541L549 541L411 541L411 541L274 541L274 541L137 541L137 541L0 541Z" fill="#7700c6"></path><path d="M0 414L137 414L137 458L274 458L274 411L411 411L411 452L549 452L549 404L686 404L686 489L823 489L823 455L960 455L960 433L960 541L960 541L823 541L823 541L686 541L686 541L549 541L549 541L411 541L411 541L274 541L274 541L137 541L137 541L0 541Z" fill="#560090"></path></svg>