<svg id="visual" viewBox="0 0 900 450" width="900" height="450" xmlns="http://www.w3.org/2000/svg" xmlns:xlink="http://www.w3.org/1999/xlink" version="1.1"><g stroke-width="1" stroke-linejoin="bevel"><path d="M427 182L488 124L429 101Z" fill="#277297" stroke="#277297"></path><path d="M427 182L529 205L488 124Z" fill="#1d4e6b" stroke="#1d4e6b"></path><path d="M427 182L514 246L529 205Z" fill="#297ea6" stroke="#297ea6"></path><path d="M309 268L414 280L427 182Z" fill="#19435d" stroke="#19435d"></path><path d="M427 182L414 280L514 246Z" fill="#277297" stroke="#277297"></path><path d="M627 52L460 0L488 124Z" fill="#0c2435" stroke="#0c2435"></path><path d="M488 124L460 0L429 101Z" fill="#205a7a" stroke="#205a7a"></path><path d="M460 0L428 0L429 101Z" fill="#081a28" stroke="#081a28"></path><path d="M429 101L285 70L427 182Z" fill="#205a7a" stroke="#205a7a"></path><path d="M428 0L285 70L429 101Z" fill="#112e42" stroke="#112e42"></path><path d="M285 70L274 205L427 182Z" fill="#277297" stroke="#277297"></path><path d="M274 205L309 268L427 182Z" fill="#0c2435" stroke="#0c2435"></path><path d="M591 268L634 170L529 205Z" fill="#15384f" stroke="#15384f"></path><path d="M529 205L634 170L488 124Z" fill="#15384f" stroke="#15384f"></path><path d="M514 246L591 268L529 205Z" fill="#205a7a" stroke="#205a7a"></path><path d="M581 333L591 268L514 246Z" fill="#0c2435" stroke="#0c2435"></path><path d="M634 170L627 52L488 124Z" fill="#246688" stroke="#246688"></path><path d="M428 0L265 0L285 70Z" fill="#112e42" stroke="#112e42"></path><path d="M285 70L209 162L274 205Z" fill="#15384f" stroke="#15384f"></path><path d="M685 51L631 0L627 52Z" fill="#081a28" stroke="#081a28"></path><path d="M627 52L631 0L460 0Z" fill="#277297" stroke="#277297"></path><path d="M464 376L514 246L414 280Z" fill="#277297" stroke="#277297"></path><path d="M464 376L581 333L514 246Z" fill="#00101c" stroke="#00101c"></path><path d="M720 301L718 151L634 170Z" fill="#1d4e6b" stroke="#1d4e6b"></path><path d="M374 376L464 376L414 280Z" fill="#00101c" stroke="#00101c"></path><path d="M222 302L272 345L309 268Z" fill="#205a7a" stroke="#205a7a"></path><path d="M162 121L209 162L285 70Z" fill="#246688" stroke="#246688"></path><path d="M272 345L374 376L309 268Z" fill="#205a7a" stroke="#205a7a"></path><path d="M309 268L374 376L414 280Z" fill="#081a28" stroke="#081a28"></path><path d="M634 170L685 51L627 52Z" fill="#1d4e6b" stroke="#1d4e6b"></path><path d="M718 151L685 51L634 170Z" fill="#205a7a" stroke="#205a7a"></path><path d="M222 302L309 268L274 205Z" fill="#277297" stroke="#277297"></path><path d="M720 301L634 170L591 268Z" fill="#246688" stroke="#246688"></path><path d="M209 162L222 302L274 205Z" fill="#1d4e6b" stroke="#1d4e6b"></path><path d="M796 57L693 0L685 51Z" fill="#00101c" stroke="#00101c"></path><path d="M685 51L693 0L631 0Z" fill="#205a7a" stroke="#205a7a"></path><path d="M173 0L162 121L285 70Z" fill="#112e42" stroke="#112e42"></path><path d="M209 162L125 285L222 302Z" fill="#277297" stroke="#277297"></path><path d="M581 333L673 332L591 268Z" fill="#112e42" stroke="#112e42"></path><path d="M611 450L673 332L581 333Z" fill="#0c2435" stroke="#0c2435"></path><path d="M267 450L433 450L374 376Z" fill="#277297" stroke="#277297"></path><path d="M374 376L433 450L464 376Z" fill="#297ea6" stroke="#297ea6"></path><path d="M464 376L511 450L581 333Z" fill="#205a7a" stroke="#205a7a"></path><path d="M265 0L173 0L285 70Z" fill="#277297" stroke="#277297"></path><path d="M433 450L511 450L464 376Z" fill="#0c2435" stroke="#0c2435"></path><path d="M765 343L720 301L673 332Z" fill="#15384f" stroke="#15384f"></path><path d="M673 332L720 301L591 268Z" fill="#246688" stroke="#246688"></path><path d="M66 56L112 205L162 121Z" fill="#0c2435" stroke="#0c2435"></path><path d="M162 121L112 205L209 162Z" fill="#277297" stroke="#277297"></path><path d="M511 450L611 450L581 333Z" fill="#19435d" stroke="#19435d"></path><path d="M112 205L125 285L209 162Z" fill="#112e42" stroke="#112e42"></path><path d="M195 397L267 450L272 345Z" fill="#15384f" stroke="#15384f"></path><path d="M272 345L267 450L374 376Z" fill="#00101c" stroke="#00101c"></path><path d="M195 397L272 345L222 302Z" fill="#205a7a" stroke="#205a7a"></path><path d="M119 370L195 397L222 302Z" fill="#0c2435" stroke="#0c2435"></path><path d="M718 151L796 57L685 51Z" fill="#277297" stroke="#277297"></path><path d="M835 216L796 57L718 151Z" fill="#00101c" stroke="#00101c"></path><path d="M173 0L107 0L162 121Z" fill="#205a7a" stroke="#205a7a"></path><path d="M664 450L765 343L673 332Z" fill="#00101c" stroke="#00101c"></path><path d="M720 301L815 243L718 151Z" fill="#246688" stroke="#246688"></path><path d="M611 450L664 450L673 332Z" fill="#246688" stroke="#246688"></path><path d="M765 343L815 243L720 301Z" fill="#19435d" stroke="#19435d"></path><path d="M900 0L803 0L796 57Z" fill="#19435d" stroke="#19435d"></path><path d="M796 57L803 0L693 0Z" fill="#246688" stroke="#246688"></path><path d="M107 0L66 56L162 121Z" fill="#00101c" stroke="#00101c"></path><path d="M0 385L119 370L125 285Z" fill="#297ea6" stroke="#297ea6"></path><path d="M900 180L835 216L900 249Z" fill="#205a7a" stroke="#205a7a"></path><path d="M815 243L835 216L718 151Z" fill="#112e42" stroke="#112e42"></path><path d="M0 243L125 285L112 205Z" fill="#297ea6" stroke="#297ea6"></path><path d="M125 285L119 370L222 302Z" fill="#0c2435" stroke="#0c2435"></path><path d="M195 397L173 450L267 450Z" fill="#1d4e6b" stroke="#1d4e6b"></path><path d="M137 450L173 450L195 397Z" fill="#297ea6" stroke="#297ea6"></path><path d="M119 370L137 450L195 397Z" fill="#1d4e6b" stroke="#1d4e6b"></path><path d="M0 0L0 74L66 56Z" fill="#112e42" stroke="#112e42"></path><path d="M66 56L0 74L112 205Z" fill="#1d4e6b" stroke="#1d4e6b"></path><path d="M119 370L0 450L137 450Z" fill="#297ea6" stroke="#297ea6"></path><path d="M0 74L0 212L112 205Z" fill="#081a28" stroke="#081a28"></path><path d="M835 216L900 126L796 57Z" fill="#081a28" stroke="#081a28"></path><path d="M900 180L900 126L835 216Z" fill="#277297" stroke="#277297"></path><path d="M664 450L780 450L765 343Z" fill="#297ea6" stroke="#297ea6"></path><path d="M900 383L900 249L815 243Z" fill="#081a28" stroke="#081a28"></path><path d="M900 249L835 216L815 243Z" fill="#19435d" stroke="#19435d"></path><path d="M0 212L0 243L112 205Z" fill="#1d4e6b" stroke="#1d4e6b"></path><path d="M900 383L815 243L765 343Z" fill="#19435d" stroke="#19435d"></path><path d="M107 0L0 0L66 56Z" fill="#277297" stroke="#277297"></path><path d="M900 126L900 0L796 57Z" fill="#00101c" stroke="#00101c"></path><path d="M0 243L0 385L125 285Z" fill="#205a7a" stroke="#205a7a"></path><path d="M780 450L900 383L765 343Z" fill="#1d4e6b" stroke="#1d4e6b"></path><path d="M0 385L0 450L119 370Z" fill="#0c2435" stroke="#0c2435"></path><path d="M780 450L900 450L900 383Z" fill="#297ea6" stroke="#297ea6"></path></g></svg>