<svg id="visual" viewBox="0 0 900 600" width="900" height="600" xmlns="http://www.w3.org/2000/svg" xmlns:xlink="http://www.w3.org/1999/xlink" version="1.1"><path d="M0 31L82 49L164 67L245 49L327 67L409 31L491 49L573 55L655 37L736 37L818 73L900 37L900 0L818 0L736 0L655 0L573 0L491 0L409 0L327 0L245 0L164 0L82 0L0 0Z" fill="#00cc8e"></path><path d="M0 115L82 199L164 241L245 163L327 271L409 181L491 247L573 175L655 163L736 223L818 211L900 205L900 35L818 71L736 35L655 35L573 53L491 47L409 29L327 65L245 47L164 65L82 47L0 29Z" fill="#00c08c"></path><path d="M0 331L82 283L164 337L245 343L327 361L409 373L491 403L573 325L655 373L736 337L818 289L900 337L900 203L818 209L736 221L655 161L573 173L491 245L409 179L327 269L245 161L164 239L82 197L0 113Z" fill="#00b388"></path><path d="M0 367L82 331L164 361L245 403L327 391L409 415L491 433L573 391L655 397L736 397L818 337L900 397L900 335L818 287L736 335L655 371L573 323L491 401L409 371L327 359L245 341L164 335L82 281L0 329Z" fill="#00a784"></path><path d="M0 481L82 457L164 463L245 481L327 451L409 475L491 487L573 493L655 487L736 505L818 451L900 517L900 395L818 335L736 395L655 395L573 389L491 431L409 413L327 389L245 401L164 359L82 329L0 365Z" fill="#009b7f"></path><path d="M0 559L82 559L164 565L245 541L327 535L409 541L491 577L573 541L655 559L736 553L818 535L900 565L900 515L818 449L736 503L655 485L573 491L491 485L409 473L327 449L245 479L164 461L82 455L0 479Z" fill="#008f79"></path><path d="M0 601L82 601L164 601L245 601L327 601L409 601L491 601L573 601L655 601L736 601L818 601L900 601L900 563L818 533L736 551L655 557L573 539L491 575L409 539L327 533L245 539L164 563L82 557L0 557Z" fill="#038373"></path></svg>